<?xml version="1.0" encoding="utf-8"?>
<svg viewBox="0 0 16 16" xmlns="http://www.w3.org/2000/svg">
  <defs/>
  <g fill="none" fill-rule="evenodd" transform="matrix(1, 0, 0, 1, 0, -1.7763568394002505e-15)">
    <polygon fill="#9AA7B0" fill-opacity=".8" points="7 1 3 5 7 5"/>
    <polygon fill="#9AA7B0" fill-opacity=".8" points="13 10 13 1 8 1 8 6 3 6 3 10"/>
    <path d="M 3.36 15.65 L 0.5 15.65 L 0.5 10.65 L 3.36 10.65 L 3.36 11.43 L 1.44 11.43 L 1.44 12.66 L 3.23 12.66 L 3.23 13.44 L 1.44 13.44 L 1.44 14.86 L 3.36 14.86 Z M 3.88 10.65 L 5.4 10.65 Q 6.38 10.65 6.88 10.93 Q 7.38 11.21 7.38 11.91 Q 7.38 12.19 7.29 12.42 Q 7.19 12.65 7.01 12.8 Q 6.83 12.95 6.57 12.99 L 6.57 13.03 Q 6.84 13.08 7.05 13.21 Q 7.27 13.34 7.39 13.58 Q 7.52 13.81 7.52 14.2 Q 7.52 14.66 7.3 14.98 Q 7.08 15.31 6.68 15.48 Q 6.27 15.65 5.71 15.65 L 3.88 15.65 Z M 4.82 12.67 L 5.52 12.67 Q 6.03 12.67 6.22 12.51 Q 6.42 12.35 6.42 12.03 Q 6.42 11.71 6.19 11.57 Q 5.96 11.43 5.45 11.43 L 4.82 11.43 Z M 4.82 13.42 L 4.82 14.87 L 5.6 14.87 Q 6.12 14.87 6.33 14.66 Q 6.54 14.46 6.54 14.12 Q 6.54 13.91 6.45 13.75 Q 6.36 13.6 6.14 13.51 Q 5.92 13.42 5.56 13.42 Z M 12.31 15.65 L 11.13 15.65 L 8.82 11.76 L 8.79 11.76 Q 8.8 11.98 8.81 12.22 Q 8.82 12.45 8.83 12.69 Q 8.84 12.92 8.85 13.17 L 8.85 15.65 L 8 15.65 L 8 10.65 L 9.17 10.65 L 11.48 14.5 L 11.5 14.5 Q 11.5 14.3 11.49 14.07 Q 11.48 13.85 11.47 13.61 Q 11.46 13.37 11.45 13.15 L 11.45 10.65 L 12.31 10.65 Z M 13.93 15.65 L 13 15.65 L 13 10.65 L 15.85 10.65 L 15.85 11.43 L 13.93 11.43 L 13.93 12.85 L 15.72 12.85 L 15.72 13.63 L 13.93 13.63 Z" style="fill: rgb(63, 182, 224);"/>
  </g>
</svg>