<?xml version="1.0" encoding="utf-8"?>
<svg viewBox="0 0 16 16" xmlns="http://www.w3.org/2000/svg">
  <defs/>
  <g fill="none" fill-rule="evenodd" transform="matrix(1, 0, 0, 1, -3.552713678800501e-15, 0)">
    <path fill="#F98B9E" fill-opacity=".6" d="M15,8 C15,11.866 11.866,15 8,15 C4.134,15 1,11.866 1,8 C1,4.134 4.134,1 8,1 C11.866,1 15,4.134 15,8"/>
    <path d="M 8.11 5.26 Q 8.88 5.26 9.42 5.59 Q 9.97 5.92 10.26 6.52 Q 10.56 7.13 10.56 7.94 L 10.56 8.53 L 6.52 8.53 Q 6.54 9.51 7.02 10.03 Q 7.51 10.55 8.38 10.55 Q 8.93 10.55 9.37 10.44 Q 9.81 10.34 10.28 10.13 L 10.28 11 Q 9.84 11.2 9.39 11.29 Q 8.95 11.38 8.33 11.38 Q 7.47 11.38 6.83 11.04 Q 6.19 10.7 5.83 10.02 Q 5.48 9.35 5.48 8.37 Q 5.48 7.4 5.8 6.7 Q 6.13 6.01 6.72 5.63 Q 7.31 5.26 8.11 5.26 Z M 8.11 6.07 Q 7.43 6.07 7.03 6.51 Q 6.62 6.95 6.54 7.75 L 9.53 7.75 Q 9.52 7.25 9.37 6.87 Q 9.21 6.49 8.9 6.28 Q 8.59 6.07 8.11 6.07 Z" style="fill: rgb(101, 77, 81);"/>
  </g>
</svg>